<svg id="visual" viewBox="0 0 960 540" width="960" height="540" xmlns="http://www.w3.org/2000/svg" xmlns:xlink="http://www.w3.org/1999/xlink" version="1.1"><rect x="0" y="0" width="960" height="540" fill="#ffffff"></rect><defs><linearGradient id="grad1_0" x1="43.8%" y1="100%" x2="100%" y2="0%"><stop offset="14.444444444444446%" stop-color="#a8a89e" stop-opacity="1"></stop><stop offset="85.55555555555554%" stop-color="#a8a89e" stop-opacity="1"></stop></linearGradient></defs><defs><linearGradient id="grad1_1" x1="43.8%" y1="100%" x2="100%" y2="0%"><stop offset="14.444444444444446%" stop-color="#a8a89e" stop-opacity="1"></stop><stop offset="85.55555555555554%" stop-color="#b4b4ab" stop-opacity="1"></stop></linearGradient></defs><defs><linearGradient id="grad1_2" x1="43.8%" y1="100%" x2="100%" y2="0%"><stop offset="14.444444444444446%" stop-color="#c0c0b9" stop-opacity="1"></stop><stop offset="85.55555555555554%" stop-color="#b4b4ab" stop-opacity="1"></stop></linearGradient></defs><defs><linearGradient id="grad1_3" x1="43.8%" y1="100%" x2="100%" y2="0%"><stop offset="14.444444444444446%" stop-color="#c0c0b9" stop-opacity="1"></stop><stop offset="85.55555555555554%" stop-color="#ccccc7" stop-opacity="1"></stop></linearGradient></defs><defs><linearGradient id="grad1_4" x1="43.8%" y1="100%" x2="100%" y2="0%"><stop offset="14.444444444444446%" stop-color="#d9d9d4" stop-opacity="1"></stop><stop offset="85.55555555555554%" stop-color="#ccccc7" stop-opacity="1"></stop></linearGradient></defs><defs><linearGradient id="grad1_5" x1="43.8%" y1="100%" x2="100%" y2="0%"><stop offset="14.444444444444446%" stop-color="#d9d9d4" stop-opacity="1"></stop><stop offset="85.55555555555554%" stop-color="#e5e5e2" stop-opacity="1"></stop></linearGradient></defs><defs><linearGradient id="grad1_6" x1="43.8%" y1="100%" x2="100%" y2="0%"><stop offset="14.444444444444446%" stop-color="#f2f2f1" stop-opacity="1"></stop><stop offset="85.55555555555554%" stop-color="#e5e5e2" stop-opacity="1"></stop></linearGradient></defs><defs><linearGradient id="grad1_7" x1="43.8%" y1="100%" x2="100%" y2="0%"><stop offset="14.444444444444446%" stop-color="#f2f2f1" stop-opacity="1"></stop><stop offset="85.55555555555554%" stop-color="#ffffff" stop-opacity="1"></stop></linearGradient></defs><defs><linearGradient id="grad2_0" x1="0%" y1="100%" x2="56.3%" y2="0%"><stop offset="14.444444444444446%" stop-color="#a8a89e" stop-opacity="1"></stop><stop offset="85.55555555555554%" stop-color="#a8a89e" stop-opacity="1"></stop></linearGradient></defs><defs><linearGradient id="grad2_1" x1="0%" y1="100%" x2="56.3%" y2="0%"><stop offset="14.444444444444446%" stop-color="#b4b4ab" stop-opacity="1"></stop><stop offset="85.55555555555554%" stop-color="#a8a89e" stop-opacity="1"></stop></linearGradient></defs><defs><linearGradient id="grad2_2" x1="0%" y1="100%" x2="56.3%" y2="0%"><stop offset="14.444444444444446%" stop-color="#b4b4ab" stop-opacity="1"></stop><stop offset="85.55555555555554%" stop-color="#c0c0b9" stop-opacity="1"></stop></linearGradient></defs><defs><linearGradient id="grad2_3" x1="0%" y1="100%" x2="56.3%" y2="0%"><stop offset="14.444444444444446%" stop-color="#ccccc7" stop-opacity="1"></stop><stop offset="85.55555555555554%" stop-color="#c0c0b9" stop-opacity="1"></stop></linearGradient></defs><defs><linearGradient id="grad2_4" x1="0%" y1="100%" x2="56.3%" y2="0%"><stop offset="14.444444444444446%" stop-color="#ccccc7" stop-opacity="1"></stop><stop offset="85.55555555555554%" stop-color="#d9d9d4" stop-opacity="1"></stop></linearGradient></defs><defs><linearGradient id="grad2_5" x1="0%" y1="100%" x2="56.3%" y2="0%"><stop offset="14.444444444444446%" stop-color="#e5e5e2" stop-opacity="1"></stop><stop offset="85.55555555555554%" stop-color="#d9d9d4" stop-opacity="1"></stop></linearGradient></defs><defs><linearGradient id="grad2_6" x1="0%" y1="100%" x2="56.3%" y2="0%"><stop offset="14.444444444444446%" stop-color="#e5e5e2" stop-opacity="1"></stop><stop offset="85.55555555555554%" stop-color="#f2f2f1" stop-opacity="1"></stop></linearGradient></defs><defs><linearGradient id="grad2_7" x1="0%" y1="100%" x2="56.3%" y2="0%"><stop offset="14.444444444444446%" stop-color="#ffffff" stop-opacity="1"></stop><stop offset="85.55555555555554%" stop-color="#f2f2f1" stop-opacity="1"></stop></linearGradient></defs><g transform="translate(960, 540)"><path d="M-378 0C-334.1 -26.1 -290.2 -52.2 -283.4 -92.1C-276.6 -132 -306.9 -185.7 -296.1 -215.1C-285.3 -244.6 -233.2 -249.8 -198.7 -273.4C-164.1 -297.1 -147 -339 -116.8 -359.5C-86.6 -380 -43.3 -379 0 -378L0 0Z" fill="#f9f9f8"></path><path d="M-330.7 0C-292.3 -22.8 -253.9 -45.7 -248 -80.6C-242 -115.5 -268.6 -162.5 -259.1 -188.2C-249.6 -214 -204.1 -218.6 -173.8 -239.3C-143.6 -259.9 -128.6 -296.6 -102.2 -314.6C-75.8 -332.5 -37.9 -331.6 0 -330.7L0 0Z" fill="#ececea"></path><path d="M-283.5 0C-250.6 -19.6 -217.7 -39.1 -212.6 -69.1C-207.5 -99 -230.2 -139.2 -222.1 -161.3C-213.9 -183.4 -174.9 -187.4 -149 -205.1C-123.1 -222.8 -110.3 -254.3 -87.6 -269.6C-65 -285 -32.5 -284.2 0 -283.5L0 0Z" fill="#dfdfdb"></path><path d="M-236.2 0C-208.8 -16.3 -181.4 -32.6 -177.1 -57.6C-172.9 -82.5 -191.8 -116 -185.1 -134.5C-178.3 -152.9 -145.8 -156.2 -124.2 -170.9C-102.6 -185.7 -91.9 -211.9 -73 -224.7C-54.1 -237.5 -27.1 -236.9 0 -236.2L0 0Z" fill="#d3d3cd"></path><path d="M-189 0C-167.1 -13 -145.1 -26.1 -141.7 -46C-138.3 -66 -153.5 -92.8 -148.1 -107.6C-142.6 -122.3 -116.6 -124.9 -99.3 -136.7C-82.1 -148.5 -73.5 -169.5 -58.4 -179.7C-43.3 -190 -21.7 -189.5 0 -189L0 0Z" fill="#c6c6c0"></path><path d="M-141.7 0C-125.3 -9.8 -108.8 -19.6 -106.3 -34.5C-103.7 -49.5 -115.1 -69.6 -111 -80.7C-107 -91.7 -87.5 -93.7 -74.5 -102.5C-61.5 -111.4 -55.1 -127.1 -43.8 -134.8C-32.5 -142.5 -16.2 -142.1 0 -141.7L0 0Z" fill="#babab2"></path><path d="M-94.5 0C-83.5 -6.5 -72.6 -13 -70.9 -23C-69.2 -33 -76.7 -46.4 -74 -53.8C-71.3 -61.1 -58.3 -62.5 -49.7 -68.4C-41 -74.3 -36.8 -84.8 -29.2 -89.9C-21.7 -95 -10.8 -94.7 0 -94.5L0 0Z" fill="#aeaea5"></path><path d="M-47.2 0C-41.8 -3.3 -36.3 -6.5 -35.4 -11.5C-34.6 -16.5 -38.4 -23.2 -37 -26.9C-35.7 -30.6 -29.2 -31.2 -24.8 -34.2C-20.5 -37.1 -18.4 -42.4 -14.6 -44.9C-10.8 -47.5 -5.4 -47.4 0 -47.2L0 0Z" fill="#a8a89e"></path></g><g transform="translate(0, 0)"><path d="M378 0C377 41.2 376.1 82.5 359.5 116.8C342.9 151.1 310.8 178.5 281.5 204.5C252.3 230.6 225.8 255.3 195.7 269.4C165.6 283.5 131.8 287.1 98.6 303.4C65.3 319.7 32.7 348.9 0 378L0 0Z" fill="#f9f9f8"></path><path d="M330.8 0C329.9 36.1 329 72.2 314.6 102.2C300.1 132.2 272 156.2 246.3 179C220.7 201.8 197.6 223.4 171.3 235.7C144.9 248.1 115.3 251.2 86.3 265.5C57.2 279.8 28.6 305.3 0 330.8L0 0Z" fill="#ececea"></path><path d="M283.5 0C282.8 30.9 282 61.9 269.6 87.6C257.2 113.3 233.1 133.9 211.2 153.4C189.2 172.9 169.4 191.5 146.8 202.1C124.2 212.6 98.9 215.3 73.9 227.5C49 239.8 24.5 261.6 0 283.5L0 0Z" fill="#dfdfdb"></path><path d="M236.3 0C235.6 25.8 235 51.6 224.7 73C214.3 94.5 194.3 111.6 176 127.8C157.7 144.1 141.2 159.6 122.3 168.4C103.5 177.2 82.4 179.4 61.6 189.6C40.8 199.8 20.4 218 0 236.3L0 0Z" fill="#d3d3cd"></path><path d="M189 0C188.5 20.6 188 41.2 179.7 58.4C171.5 75.6 155.4 89.3 140.8 102.3C126.1 115.3 112.9 127.6 97.9 134.7C82.8 141.8 65.9 143.5 49.3 151.7C32.7 159.9 16.3 174.4 0 189L0 0Z" fill="#c6c6c0"></path><path d="M141.8 0C141.4 15.5 141 30.9 134.8 43.8C128.6 56.7 116.6 66.9 105.6 76.7C94.6 86.5 84.7 95.7 73.4 101C62.1 106.3 49.4 107.6 37 113.8C24.5 119.9 12.3 130.8 0 141.8L0 0Z" fill="#babab2"></path><path d="M94.5 0C94.3 10.3 94 20.6 89.9 29.2C85.7 37.8 77.7 44.6 70.4 51.1C63.1 57.6 56.5 63.8 48.9 67.4C41.4 70.9 33 71.8 24.6 75.8C16.3 79.9 8.2 87.2 0 94.5L0 0Z" fill="#aeaea5"></path><path d="M47.3 0C47.1 5.2 47 10.3 44.9 14.6C42.9 18.9 38.9 22.3 35.2 25.6C31.5 28.8 28.2 31.9 24.5 33.7C20.7 35.4 16.5 35.9 12.3 37.9C8.2 40 4.1 43.6 0 47.3L0 0Z" fill="#a8a89e"></path></g></svg>